# xmcd
#
# Track frame offsets:
#	150
#	11235
#	23762
#	36215
#	47971
#	53958
#	64023
#	81510
#	92405
#	101970
#	113777
#	122473
#	131736
#	143219
#	154928
#	165159
#	175892
#	189188
#	201191
#	213842
#
# Disc length: 3033 seconds
#
# Revision: 1
# Processed by: cddbd v1.5.1PL0 Copyright (c) Steve Scherf et al.
# Submitted via: audiograbber 1.81.02
#
DISCID=130bd714
DTITLE=Various Artist - Country Love Songs Vol. 3
DYEAR=1999
DGENRE=Country
TTITLE0=Patsy Cline - A Stranger In Your Arms
TTITLE1=Freddy Fender - Almost Persuaded
TTITLE2=George Jones - Blue Side Of Lonesome
TTITLE3=Waylon Jennings - Crying
TTITLE4=Jim Reeves - Have I Told You Lately That I Love You
TTITLE5=George Jones - Heartaches and Hangovers
TTITLE6=Don Williams - I Believe In You
TTITLE7=Billie J Spears - If It Ain't Love
TTITLE8=Charley Pride - Kiss An Angel Good Morning
TTITLE9=Hank Hawkins - Lonesome 7-7203
TTITLE10=Waylon Jennings - Love's Gonna Live Here
TTITLE11=Johnny Paycheck - Mr Love Maker
TTITLE12=Charley Pride - My Eyes Can Only See As Far As You
TTITLE13=Don Gibson - Oh Lonesome Me
TTITLE14=Patsy Cline - Pick Me Up On Your Way Down
TTITLE15=Hank Locklin - Please Help Me, I'm Falling
TTITLE16=Donna Fargo - Somebody Special
TTITLE17=Patsy Cline - Today, Tomorrow, and Forever
TTITLE18=Claude King - Wolverton Mountain
TTITLE19=Don Williams - You, My Best Friend
EXTD=
EXTT0=
EXTT1=
EXTT2=
EXTT3=
EXTT4=
EXTT5=
EXTT6=
EXTT7=
EXTT8=
EXTT9=
EXTT10=
EXTT11=
EXTT12=
EXTT13=
EXTT14=
EXTT15=
EXTT16=
EXTT17=
EXTT18=
EXTT19=
PLAYORDER=
